# xmcd
#
# Track frame offsets: 
#        150
#        8197
#        17570
#        32312
#        43210
#        56807
#        69390
#        79152
#        90952
#        104130
#        116205
#        126770
#
# Disc length: 1862 seconds
#
# Revision: 0
# Processed by: cddbd v1.4PL0 Copyright (c) Steve Scherf et al.
# Submitted via: ExactAudioCopy v0.90b4
#
DISCID=9907440c
DTITLE=The Larry Fuller Band - Unfaithful And Blue
DYEAR=1995
DGENRE=Bluegrass
TTITLE0=Honky Tonk Down The Road
TTITLE1=She's Never Coming Back
TTITLE2=1949
TTITLE3=High Geared Daddy
TTITLE4=Mama's Silver Hair
TTITLE5=Love Of The Mountains
TTITLE6=Money In The Bank
TTITLE7=Man Of Constant Sorrow
TTITLE8=Unfaithful And Blue
TTITLE9=Nine Pound Hammer
TTITLE10=Mary Ann
TTITLE11=Roving Gambler
EXTD=
EXTT0=
EXTT1=
EXTT2=
EXTT3=
EXTT4=
EXTT5=
EXTT6=
EXTT7=
EXTT8=
EXTT9=
EXTT10=
EXTT11=
PLAYORDER=
